<?xml version="1.0" standalone="no"?>
<!DOCTYPE svg PUBLIC "-//W3C//DTD SVG 20010904//EN"
 "http://www.w3.org/TR/2001/REC-SVG-20010904/DTD/svg10.dtd">
<svg version="1.0" xmlns="http://www.w3.org/2000/svg"
 width="700.000000pt" height="700.000000pt" viewBox="0 0 700.000000 700.000000"
 preserveAspectRatio="xMidYMid meet">
<metadata>
Created by potrace 1.11, written by Peter Selinger 2001-2013
</metadata>
<g transform="translate(0.000000,700.000000) scale(0.100000,-0.100000)"
fill="#000000" stroke="none">
<path d="M3396 6985 c-27 -15 -194 -184 -225 -228 -8 -12 -24 -31 -34 -42 -21
-23 -177 -251 -177 -259 0 -3 -15 -29 -34 -58 -50 -80 -156 -288 -214 -424
-64 -148 -150 -376 -157 -412 -2 -15 -11 -53 -20 -84 -8 -32 -17 -70 -20 -85
-2 -16 -9 -53 -15 -83 -6 -30 -14 -89 -18 -130 -20 -241 1 -295 222 -589 149
-198 288 -406 326 -486 118 -256 175 -405 196 -520 9 -49 17 -97 19 -105 3
-15 16 -109 20 -145 27 -220 29 -247 40 -602 l7 -213 -91 0 -91 0 -1 158 c0
86 -2 173 -4 192 -1 19 -6 71 -10 114 -3 44 -8 83 -10 86 -2 3 -7 33 -10 65
-9 75 -7 67 -44 212 -90 355 -237 655 -472 969 -110 146 -287 335 -394 419
-27 22 -52 42 -55 46 -11 12 -102 69 -110 69 -4 0 -10 4 -12 8 -14 34 -362
196 -528 247 -190 57 -309 77 -479 80 -410 6 -779 -166 -916 -427 -112 -213
-109 -452 9 -701 143 -301 374 -446 747 -472 107 -7 179 29 196 99 12 52 -3
130 -32 159 -19 19 -59 103 -80 166 -27 82 -16 170 29 247 92 158 239 224 482
219 147 -4 255 -28 382 -86 61 -28 191 -107 217 -132 7 -7 40 -36 75 -66 140
-122 263 -297 400 -566 103 -205 141 -299 184 -455 16 -61 22 -89 45 -215 24
-136 42 -246 46 -282 5 -37 14 -97 21 -141 3 -13 -1 -22 -8 -23 -113 -6 -207
-31 -247 -65 -57 -48 -72 -163 -30 -230 35 -57 82 -73 229 -77 45 -2 64 -6 63
-15 -2 -6 -10 -56 -18 -109 -17 -118 -26 -147 -72 -238 -34 -67 -116 -177
-164 -222 -54 -49 -142 -93 -187 -93 -66 0 -103 23 -194 121 -89 95 -103 104
-160 101 -79 -4 -134 -63 -163 -172 -45 -175 16 -348 163 -457 20 -16 43 -34
50 -40 24 -23 115 -43 191 -43 72 0 232 31 255 49 6 5 22 12 36 16 14 4 54 27
90 50 264 175 500 602 536 970 3 33 7 65 9 70 2 7 33 11 76 10 72 -1 74 -2 72
-26 -5 -57 -45 -331 -59 -409 -24 -133 -68 -253 -145 -405 -39 -77 -98 -191
-129 -253 -112 -218 -102 -333 46 -560 73 -112 133 -183 278 -331 196 -200
208 -200 406 -1 160 162 215 225 292 338 71 105 86 142 95 246 10 117 -24 228
-121 396 -148 256 -250 514 -290 735 -9 50 -18 100 -20 112 -3 11 -7 43 -11
70 -4 26 -9 56 -12 66 -4 15 5 17 100 17 l104 0 12 -57 c32 -146 111 -355 187
-498 116 -219 330 -453 497 -543 115 -62 117 -63 191 -63 92 1 120 6 182 36
113 55 189 156 213 285 15 80 8 248 -11 285 -25 46 -75 78 -120 77 -51 -2 -75
-16 -140 -79 -90 -85 -118 -101 -182 -98 -76 4 -144 43 -221 130 -73 82 -125
160 -167 253 -33 73 -98 251 -98 267 0 7 31 11 75 12 105 3 147 26 181 103 24
54 22 110 -7 166 -38 73 -78 90 -232 95 -47 2 -56 5 -53 18 4 16 13 57 20 96
3 19 11 70 22 155 3 19 10 62 16 95 5 33 12 74 15 90 2 17 11 55 18 85 8 30
16 66 19 80 8 44 43 157 66 215 184 466 372 756 596 917 259 186 565 268 799
213 154 -35 253 -109 295 -221 19 -52 21 -71 16 -159 -3 -55 -8 -111 -12 -125
-12 -42 -50 -106 -92 -157 -47 -57 -64 -109 -51 -155 12 -40 24 -57 68 -87 32
-23 38 -24 160 -18 153 7 174 11 275 48 222 81 393 238 504 462 32 66 58 137
68 187 2 14 9 46 14 72 14 68 5 253 -15 318 -77 248 -282 455 -535 540 -132
44 -224 57 -395 58 -434 1 -876 -172 -1202 -470 -231 -211 -431 -433 -539
-600 -158 -244 -320 -643 -382 -943 -32 -152 -40 -223 -57 -500 -4 -50 -8
-100 -10 -110 -2 -11 -4 -36 -4 -57 l-1 -36 -78 2 c-43 1 -82 5 -87 8 -6 3 -9
46 -9 95 2 125 14 411 19 453 2 19 7 74 10 122 3 49 8 97 10 107 2 11 7 51 10
88 4 37 9 77 11 88 2 10 6 37 10 59 3 22 7 43 9 47 2 3 7 19 9 36 17 94 98
292 195 478 107 203 126 236 268 468 142 232 155 257 179 351 16 62 21 206 10
286 -4 25 -9 63 -12 85 -3 22 -7 42 -9 46 -2 3 -7 21 -10 40 -40 234 -163 576
-292 819 -56 105 -170 296 -192 322 -6 7 -38 49 -70 93 -130 176 -257 323
-321 372 -27 20 -83 25 -114 8z"/>
</g>
</svg>
