<svg id="Logo-thick" xmlns:rdf="http://www.w3.org/1999/02/22-rdf-syntax-ns#" xmlns="http://www.w3.org/2000/svg" height="289" viewBox="0 0 833.1 288.4" width="833" version="1.1" xmlns:cc="http://creativecommons.org/ns#" xmlns:dc="http://purl.org/dc/elements/1.1/">
 <g id="logo">
  <path id="a" d="m42.3 0.433-2.9 4.8s-34.2 62.5-39.2 80.8l0.2 101h5.7l-0.2-76.7h69.6v76.7h10.4v-101l-0.1-0.4c-4.2-15.7-14.3-35.7-23.3-52-9.1-16.4-17.2-29-17.2-29l-3-4.7zm-1.8 18.5c2.9 4.7 6.2 7.2 12.4 18.5 8.9 16.1 18.7 35.8 22.6 50.1v16.2h-69.6l-0.1-16.7c8.4-24.7 28-56.7 34.7-68.1z">
   <title id="title4420">letter A</title>
  </path>
  <path id="p" d="m111 106c-2.2 0-3.6 0-6.5 2.9v-2.7h-6.8v181h6.8v-99.8c2.7 2.6 4.5 3.3 6.5 3.3h59.9c3.7 0 6.9-1.8 9.3-4.2s4.2-5.6 4.2-9.3v-60.1c0-3.7-1.8-6.9-4.2-9.3s-5.6-2.2-9.3-2.2h-59.9zm-0.5 5h0.5 56c1.1 0 2.9 0.8 4.3 2.2s2.2 3.2 2.2 4.3v60.1c0 1.1-0.8 2.9-2.2 4.3s-3.2 4.2-4.3 4.2h-56s-3.1 0-5.8-3.3c-0.5-0.6-0.4-0.4-0.7-0.9v-66.9c0.4-0.4 0.8-0.9 1.3-1.4 1.9-2.1 3.9-2.5 4.7-2.6z"/>
  <path id="t" d="m141 3.43c-2.4 0-4.3 1.1-5.7 2.3-1.5 1.3-2.8 2.7-3.8 4.1-2.2 2.7-3.6 5.5-3.6 5.5l6.2 3.2s1.2-2.2 2.9-4.5c0.9-1.1 1.8-2.2 2.7-2.8 0.8-0.7 1.4-0.8 1.3-0.8h54.5v277h9v-277h50.5c-0.1 0 0.5 0.1 1.3 0.8 0.9 0.6 1.8 1.7 2.7 2.8 1.7 2.3 2.9 4.5 2.9 4.5l12.2-3.2s-1.4-2.8-3.6-5.5c-1-1.4-2.3-2.8-3.8-4.1-1.4-1.2-3.3-2.3-5.7-2.3h-120z"/>
  <path id="u" d="m217 106v70.1c0 3.6 1.8 6.8 4.2 9.2 2.4 2.5 5.6 4.3 9.3 4.3h60c2.4 0 4.3-1.1 5.8-2.3 0.2-0.3 0.5-0.5 0.7-0.7v2.9h11v-83.5h-11v69.2c-0.4 0.7-1.2 2.1-2.5 3.8-0.8 1.1-1.8 2.2-2.6 2.8-0.8 0.7-1.4 0.8-1.4 0.8h-60c-1.1 0-2.9-0.8-4.3-2.2s-2.2-3.2-2.2-4.3v-70.1h-7z"/>
  <path id="s" d="m331 104c-3.7 0-6.8 1.8-9.2 4.3-2.5 2.4-4.3 5.5-4.3 9.2v20c0 3.7 1.8 6.8 4.3 9.2 2.4 2.5 5.5 4.3 9.2 4.3h56c1 0 2.9 0.8 4.3 2.2s2.2 3.3 2.2 4.3v20c0 1-0.8 2.9-2.2 4.3s-3.3 2.2-4.3 2.2h-56c0.1 0-0.5-0.1-1.3-0.8-0.9-0.6-1.8-1.7-2.7-2.8-1.7-2.3-2.9-4.5-2.9-4.5l-6.2 3.2s1.4 2.8 3.6 5.5c1 1.4 2.3 2.8 3.8 4.1 1.4 1.2 3.3 2.3 5.7 2.3h60c3.7 0 6.8-1.8 9.2-4.3 2.5-2.4 4.3-5.5 4.3-9.2v-20c0-3.7-1.8-6.8-4.3-9.2-2.4-2.5-5.5-4.3-9.2-4.3h-60c-1 0-2.9-0.8-4.3-2.2s-2.2-3.3-2.2-4.3v-20c0-1 0.8-2.9 2.2-4.3s3.3-2.2 4.3-2.2h56c-0.1 0 0.5 0.1 1.3 0.8 0.9 0.6 1.8 1.7 2.7 2.8 1.7 2.3 2.9 4.5 2.9 4.5l10.2-3.2s-1.4-2.8-3.6-5.5c-1-1.4-2.3-2.8-3.8-4.1-1.4-1.2-3.3-2.3-5.7-2.3z"/>
  <path id="e" d="m231 204c-3.7 0-6.8 1.8-9.2 4.3-2.5 2.4-4.3 5.5-4.3 9.2v57.1c0 3.7 1.8 6.8 4.3 9.2 2.4 2.5 5.5 4.3 9.2 4.3h60c2.4 0 4.3-1.1 5.7-2.3 1.5-1.3 2.8-2.7 3.8-4.1 2.2-2.7 3.6-5.5 3.6-5.5l-11-2s-1.2 2.2-2.9 4.5c-0.9 1.1-1.8 2.2-2.7 2.8-0.8 0.7-1.4 0.8-1.3 0.8h-56c-1 0-2.9-0.8-4.3-2.2s-2.2-3.3-2.2-4.3v-25.6h80v-31.5c0-3.7-1.8-6.8-4.3-9.2-2.4-2.5-5.5-4.3-9.2-4.3zm0 7h56c1 0 2.9 0.8 4.3 2.2s2.2 3.3 2.2 4.3v24.5h-69v-24.5c0-1 0.8-2.9 2.2-4.3s3.3-2.2 4.3-2.2z"/>
  <path id="c1" d="m331 204c-3.7 0-6.8 1.8-9.2 4.3-2.5 2.4-4.3 5.5-4.3 9.2v57c0 3.7 1.8 6.8 4.3 9.2 2.4 2.5 5.5 4.3 9.2 4.3h60c2.4 0 4.3-1.1 5.7-2.3 1.5-1.3 2.8-2.7 3.8-4.1 2.2-2.7 3.6-5.5 3.6-5.5l-12.2-3.2s-1.2 2.2-2.9 4.5c-0.9 1.1-1.8 2.2-2.7 2.8-0.8 0.7-1.4 0.8-1.3 0.8h-54c-1 0-2.9-0.8-4.3-2.2s-2.2-3.3-2.2-4.3v-57c0-1 0.8-2.9 2.2-4.3s3.3-2.2 4.3-2.2h54c-0.1 0 0.5 0.1 1.3 0.8 0.9 0.6 1.8 1.7 2.7 2.8 1.7 2.3 2.9 4.5 2.9 4.5l12.2-3.2s-1.4-2.8-3.6-5.5c-1-1.4-2.3-2.8-3.8-4.1-1.4-1.2-3.3-2.3-5.7-2.3z" fill-rule="evenodd" fill="#000000"/>
  <path id="h" d="m417 104v183h7v-69.3c0.5-0.8 1.2-2.1 2.4-3.6 0.8-1.1 1.8-2.2 2.6-2.8 0.8-0.7 1.4-0.8 1.4-0.8h56c1.1 0 2.9 0.8 4.3 2.2s2.2 3.2 2.2 4.3v70h11v-70c0-3.6-1.8-6.8-4.2-9.2-2.4-2.5-5.6-4.3-9.3-4.3h-60c-2.4 0-4.3 1.1-5.8 2.3-0.2 0.1-0.4 0.3-0.6 0.5v-102h-7z"/>
  <path id="n" d="m531 204c-2.4 0-4.3 1.1-5.8 2.3-0.2 0.2-0.4 0.4-0.7 0.6v-2.4h-7v83.1h7v-69.2c0.4-0.8 1.2-2.2 2.5-3.8 0.8-1.1 1.8-2.2 2.6-2.8 0.8-0.7 1.4-0.8 1.4-0.8h56c1.1 0 2.9 0.8 4.3 2.2s2.2 3.2 2.2 4.3v70h11v-70c0-3.6-1.8-6.8-4.2-9.2-2.4-2.5-5.6-4.3-9.3-4.3h-60z"/>
  <path id="i" d="m615 146v11.1h11v-11.1h-11zm0 57.8v83.3h11v-83.3h-11z"/>
  <path id="c2" d="m651 204c-3.7 0-6.8 1.8-9.2 4.3-2.5 2.4-4.3 5.5-4.3 9.2v56.4c0 3.7 1.8 6.8 4.3 9.2 2.4 2.5 5.5 4.3 9.2 4.3h60c2.4 0 4.3-1.1 5.7-2.3 1.5-1.3 2.8-2.7 3.8-4.1 2.2-2.7 3.6-5.5 3.6-5.5l-12.2-3.2s-1.2 2.2-2.9 4.5c-0.9 1.1-1.8 2.2-2.7 2.8-0.8 0.7-1.4 0.8-1.3 0.8h-54c-1 0-2.9-0.8-4.3-2.2s-2.2-3.3-2.2-4.3v-56.4c0-1 0.8-2.9 2.2-4.3s3.3-2.2 4.3-2.2h54c-0.1 0 0.5 0.1 1.3 0.8 0.9 0.6 1.8 1.7 2.7 2.8 1.7 2.3 2.9 4.5 2.9 4.5l12.2-3.2s-1.4-2.8-3.6-5.5c-1-1.4-2.3-2.8-3.8-4.1-1.4-1.2-3.3-2.3-5.7-2.3z"/>
  <path id="a2" d="m741 204v7h64c1 0 2.9 0.8 4.3 2.2s2.2 3.3 2.2 4.3v24.5h-60.5c-3.7 0-6.8 1.8-9.2 4.3-2.5 2.4-4.3 5.5-4.3 9.2v20c0 3.7 1.8 6.8 4.3 9.2 2.4 2.5 5.5 4.3 9.2 4.3h60c2.4 0 4.3-1.1 5.7-2.3l1.5-1.5c3 2.1 11.2 3.4 11.2 3.4l3.2-6.2s-2.2-1.2-4.5-2.9c-1.1-0.9-2.2-1.8-2.8-2.7-0.7-0.8-0.8-1.4-0.8-1.3v-58c0-3.7-1.8-6.8-4.3-9.2-2.4-2.5-5.5-4.3-9.2-4.3h-70zm10 45h60.5v26.5c0 2 0.7 3.6 1.7 4.9-0.3 0.3-0.6 0.6-0.9 0.8-0.8 0.7-1.4 0.8-1.3 0.8h-60c-1 0-2.9-0.8-4.3-2.2s-2.2-3.3-2.2-4.3v-20c0-1 0.8-2.9 2.2-4.3s3.3-2.2 4.3-2.2z"/>
 </g>
</svg>
